<svg xmlns="http://www.w3.org/2000/svg" xmlns:xlink="http://www.w3.org/1999/xlink" width="500" zoomAndPan="magnify" viewBox="0 0 375 374.999991" height="500" preserveAspectRatio="xMidYMid meet" version="1.0"><defs><g/><clipPath id="8b7bc6d1a4"><path d="M 131.25 131.25 L 243.75 131.25 L 243.75 243.75 L 131.25 243.75 Z M 131.25 131.25 " clip-rule="nonzero"/></clipPath><clipPath id="97d50fd6fd"><path d="M 187.5 131.25 C 156.433594 131.25 131.25 156.433594 131.25 187.5 C 131.25 218.566406 156.433594 243.75 187.5 243.75 C 218.566406 243.75 243.75 218.566406 243.75 187.5 C 243.75 156.433594 218.566406 131.25 187.5 131.25 Z M 187.5 131.25 " clip-rule="nonzero"/></clipPath><clipPath id="27886c61c7"><path d="M 0.25 0.25 L 112.75 0.25 L 112.75 112.75 L 0.25 112.75 Z M 0.25 0.25 " clip-rule="nonzero"/></clipPath><clipPath id="74dc333b28"><path d="M 56.5 0.25 C 25.433594 0.25 0.25 25.433594 0.25 56.5 C 0.25 87.566406 25.433594 112.75 56.5 112.75 C 87.566406 112.75 112.75 87.566406 112.75 56.5 C 112.75 25.433594 87.566406 0.25 56.5 0.25 Z M 56.5 0.25 " clip-rule="nonzero"/></clipPath><linearGradient x1="0.000000873813" gradientTransform="matrix(0.439453, 0, 0, 0.439453, 0.249996, 0.249991)" y1="255.999999" x2="255.999999" gradientUnits="userSpaceOnUse" y2="0.000000873813" id="7e294d57cb"><stop stop-opacity="1" stop-color="rgb(89.408875%, 50.19989%, 1.959229%)" offset="0"/><stop stop-opacity="1" stop-color="rgb(89.408875%, 50.19989%, 1.959229%)" offset="0.125"/><stop stop-opacity="1" stop-color="rgb(89.408875%, 50.19989%, 1.959229%)" offset="0.140625"/><stop stop-opacity="1" stop-color="rgb(89.408875%, 50.19989%, 1.959229%)" offset="0.148437"/><stop stop-opacity="1" stop-color="rgb(89.093018%, 49.92981%, 1.940918%)" offset="0.152344"/><stop stop-opacity="1" stop-color="rgb(88.778687%, 49.659729%, 1.924133%)" offset="0.15625"/><stop stop-opacity="1" stop-color="rgb(88.38501%, 49.32251%, 1.901245%)" offset="0.160156"/><stop stop-opacity="1" stop-color="rgb(87.991333%, 48.985291%, 1.879883%)" offset="0.164063"/><stop stop-opacity="1" stop-color="rgb(87.597656%, 48.648071%, 1.858521%)" offset="0.167969"/><stop stop-opacity="1" stop-color="rgb(87.203979%, 48.312378%, 1.837158%)" offset="0.171875"/><stop stop-opacity="1" stop-color="rgb(86.810303%, 47.975159%, 1.81427%)" offset="0.175781"/><stop stop-opacity="1" stop-color="rgb(86.416626%, 47.637939%, 1.792908%)" offset="0.179688"/><stop stop-opacity="1" stop-color="rgb(86.021423%, 47.30072%, 1.77002%)" offset="0.183594"/><stop stop-opacity="1" stop-color="rgb(85.627747%, 46.963501%, 1.748657%)" offset="0.1875"/><stop stop-opacity="1" stop-color="rgb(85.23407%, 46.626282%, 1.727295%)" offset="0.191406"/><stop stop-opacity="1" stop-color="rgb(84.840393%, 46.289062%, 1.705933%)" offset="0.195312"/><stop stop-opacity="1" stop-color="rgb(84.446716%, 45.951843%, 1.683044%)" offset="0.199219"/><stop stop-opacity="1" stop-color="rgb(84.05304%, 45.614624%, 1.661682%)" offset="0.203125"/><stop stop-opacity="1" stop-color="rgb(83.659363%, 45.277405%, 1.638794%)" offset="0.207031"/><stop stop-opacity="1" stop-color="rgb(83.265686%, 44.941711%, 1.617432%)" offset="0.210937"/><stop stop-opacity="1" stop-color="rgb(82.870483%, 44.604492%, 1.596069%)" offset="0.214844"/><stop stop-opacity="1" stop-color="rgb(82.476807%, 44.267273%, 1.574707%)" offset="0.21875"/><stop stop-opacity="1" stop-color="rgb(82.08313%, 43.930054%, 1.551819%)" offset="0.222656"/><stop stop-opacity="1" stop-color="rgb(81.689453%, 43.592834%, 1.530457%)" offset="0.226563"/><stop stop-opacity="1" stop-color="rgb(81.295776%, 43.255615%, 1.507568%)" offset="0.230469"/><stop stop-opacity="1" stop-color="rgb(80.9021%, 42.918396%, 1.486206%)" offset="0.234375"/><stop stop-opacity="1" stop-color="rgb(80.508423%, 42.581177%, 1.464844%)" offset="0.238281"/><stop stop-opacity="1" stop-color="rgb(80.114746%, 42.245483%, 1.443481%)" offset="0.242188"/><stop stop-opacity="1" stop-color="rgb(79.719543%, 41.908264%, 1.420593%)" offset="0.246094"/><stop stop-opacity="1" stop-color="rgb(79.325867%, 41.571045%, 1.399231%)" offset="0.25"/><stop stop-opacity="1" stop-color="rgb(78.93219%, 41.233826%, 1.376343%)" offset="0.253906"/><stop stop-opacity="1" stop-color="rgb(78.538513%, 40.896606%, 1.35498%)" offset="0.257812"/><stop stop-opacity="1" stop-color="rgb(78.144836%, 40.559387%, 1.333618%)" offset="0.261719"/><stop stop-opacity="1" stop-color="rgb(77.75116%, 40.222168%, 1.312256%)" offset="0.265625"/><stop stop-opacity="1" stop-color="rgb(77.357483%, 39.884949%, 1.289368%)" offset="0.269531"/><stop stop-opacity="1" stop-color="rgb(76.963806%, 39.547729%, 1.268005%)" offset="0.273438"/><stop stop-opacity="1" stop-color="rgb(76.568604%, 39.21051%, 1.245117%)" offset="0.277344"/><stop stop-opacity="1" stop-color="rgb(76.174927%, 38.874817%, 1.223755%)" offset="0.28125"/><stop stop-opacity="1" stop-color="rgb(75.78125%, 38.537598%, 1.202393%)" offset="0.285156"/><stop stop-opacity="1" stop-color="rgb(75.387573%, 38.200378%, 1.18103%)" offset="0.289062"/><stop stop-opacity="1" stop-color="rgb(74.993896%, 37.863159%, 1.158142%)" offset="0.292969"/><stop stop-opacity="1" stop-color="rgb(74.60022%, 37.52594%, 1.13678%)" offset="0.296875"/><stop stop-opacity="1" stop-color="rgb(74.206543%, 37.188721%, 1.113892%)" offset="0.300781"/><stop stop-opacity="1" stop-color="rgb(73.812866%, 36.851501%, 1.092529%)" offset="0.304687"/><stop stop-opacity="1" stop-color="rgb(73.417664%, 36.514282%, 1.071167%)" offset="0.308594"/><stop stop-opacity="1" stop-color="rgb(73.023987%, 36.177063%, 1.049805%)" offset="0.3125"/><stop stop-opacity="1" stop-color="rgb(72.63031%, 35.839844%, 1.026917%)" offset="0.316406"/><stop stop-opacity="1" stop-color="rgb(72.236633%, 35.50415%, 1.005554%)" offset="0.320313"/><stop stop-opacity="1" stop-color="rgb(71.842957%, 35.166931%, 0.982666%)" offset="0.324219"/><stop stop-opacity="1" stop-color="rgb(71.44928%, 34.829712%, 0.961304%)" offset="0.328125"/><stop stop-opacity="1" stop-color="rgb(71.055603%, 34.492493%, 0.939941%)" offset="0.332031"/><stop stop-opacity="1" stop-color="rgb(70.661926%, 34.155273%, 0.918579%)" offset="0.335938"/><stop stop-opacity="1" stop-color="rgb(70.266724%, 33.818054%, 0.895691%)" offset="0.339844"/><stop stop-opacity="1" stop-color="rgb(69.873047%, 33.480835%, 0.874329%)" offset="0.34375"/><stop stop-opacity="1" stop-color="rgb(69.47937%, 33.143616%, 0.85144%)" offset="0.347656"/><stop stop-opacity="1" stop-color="rgb(69.085693%, 32.807922%, 0.830078%)" offset="0.351562"/><stop stop-opacity="1" stop-color="rgb(68.692017%, 32.470703%, 0.808716%)" offset="0.355469"/><stop stop-opacity="1" stop-color="rgb(68.29834%, 32.133484%, 0.787354%)" offset="0.359375"/><stop stop-opacity="1" stop-color="rgb(67.904663%, 31.796265%, 0.764465%)" offset="0.363281"/><stop stop-opacity="1" stop-color="rgb(67.510986%, 31.459045%, 0.743103%)" offset="0.367188"/><stop stop-opacity="1" stop-color="rgb(67.115784%, 31.121826%, 0.720215%)" offset="0.371094"/><stop stop-opacity="1" stop-color="rgb(66.722107%, 30.784607%, 0.698853%)" offset="0.375"/><stop stop-opacity="1" stop-color="rgb(66.32843%, 30.447388%, 0.67749%)" offset="0.378906"/><stop stop-opacity="1" stop-color="rgb(65.934753%, 30.110168%, 0.656128%)" offset="0.382812"/><stop stop-opacity="1" stop-color="rgb(65.541077%, 29.772949%, 0.63324%)" offset="0.386719"/><stop stop-opacity="1" stop-color="rgb(65.1474%, 29.437256%, 0.611877%)" offset="0.390625"/><stop stop-opacity="1" stop-color="rgb(64.753723%, 29.100037%, 0.588989%)" offset="0.394531"/><stop stop-opacity="1" stop-color="rgb(64.360046%, 28.762817%, 0.567627%)" offset="0.398438"/><stop stop-opacity="1" stop-color="rgb(63.964844%, 28.425598%, 0.546265%)" offset="0.402344"/><stop stop-opacity="1" stop-color="rgb(63.571167%, 28.088379%, 0.524902%)" offset="0.40625"/><stop stop-opacity="1" stop-color="rgb(63.17749%, 27.75116%, 0.502014%)" offset="0.410156"/><stop stop-opacity="1" stop-color="rgb(62.783813%, 27.41394%, 0.480652%)" offset="0.414062"/><stop stop-opacity="1" stop-color="rgb(62.390137%, 27.076721%, 0.457764%)" offset="0.417969"/><stop stop-opacity="1" stop-color="rgb(61.99646%, 26.741028%, 0.436401%)" offset="0.421875"/><stop stop-opacity="1" stop-color="rgb(61.602783%, 26.403809%, 0.415039%)" offset="0.425781"/><stop stop-opacity="1" stop-color="rgb(61.209106%, 26.066589%, 0.393677%)" offset="0.429687"/><stop stop-opacity="1" stop-color="rgb(60.81543%, 25.72937%, 0.370789%)" offset="0.433594"/><stop stop-opacity="1" stop-color="rgb(60.421753%, 25.392151%, 0.349426%)" offset="0.4375"/><stop stop-opacity="1" stop-color="rgb(60.02655%, 25.054932%, 0.326538%)" offset="0.441406"/><stop stop-opacity="1" stop-color="rgb(59.632874%, 24.717712%, 0.305176%)" offset="0.445313"/><stop stop-opacity="1" stop-color="rgb(59.239197%, 24.380493%, 0.283813%)" offset="0.449219"/><stop stop-opacity="1" stop-color="rgb(58.84552%, 24.043274%, 0.262451%)" offset="0.453125"/><stop stop-opacity="1" stop-color="rgb(58.451843%, 23.706055%, 0.239563%)" offset="0.457031"/><stop stop-opacity="1" stop-color="rgb(58.058167%, 23.370361%, 0.218201%)" offset="0.460938"/><stop stop-opacity="1" stop-color="rgb(57.66449%, 23.033142%, 0.195312%)" offset="0.464844"/><stop stop-opacity="1" stop-color="rgb(57.270813%, 22.695923%, 0.17395%)" offset="0.46875"/><stop stop-opacity="1" stop-color="rgb(56.87561%, 22.358704%, 0.152588%)" offset="0.472656"/><stop stop-opacity="1" stop-color="rgb(56.481934%, 22.021484%, 0.131226%)" offset="0.476562"/><stop stop-opacity="1" stop-color="rgb(56.088257%, 21.684265%, 0.108337%)" offset="0.480469"/><stop stop-opacity="1" stop-color="rgb(55.69458%, 21.347046%, 0.0869751%)" offset="0.484375"/><stop stop-opacity="1" stop-color="rgb(55.300903%, 21.009827%, 0.0640869%)" offset="0.488281"/><stop stop-opacity="1" stop-color="rgb(54.907227%, 20.672607%, 0.0427246%)" offset="0.492188"/><stop stop-opacity="1" stop-color="rgb(54.51355%, 20.335388%, 0.0213623%)" offset="0.496094"/><stop stop-opacity="1" stop-color="rgb(54.119873%, 19.999695%, 0%)" offset="0.5"/><stop stop-opacity="1" stop-color="rgb(53.6026%, 20.66803%, 0.660706%)" offset="0.503906"/><stop stop-opacity="1" stop-color="rgb(53.086853%, 21.337891%, 1.321411%)" offset="0.507812"/><stop stop-opacity="1" stop-color="rgb(52.56958%, 22.007751%, 1.982117%)" offset="0.511719"/><stop stop-opacity="1" stop-color="rgb(52.053833%, 22.677612%, 2.642822%)" offset="0.515625"/><stop stop-opacity="1" stop-color="rgb(51.53656%, 23.347473%, 3.303528%)" offset="0.519531"/><stop stop-opacity="1" stop-color="rgb(51.020813%, 24.017334%, 3.964233%)" offset="0.523438"/><stop stop-opacity="1" stop-color="rgb(50.50354%, 24.687195%, 4.624939%)" offset="0.527344"/><stop stop-opacity="1" stop-color="rgb(49.987793%, 25.357056%, 5.28717%)" offset="0.53125"/><stop stop-opacity="1" stop-color="rgb(49.47052%, 26.025391%, 5.947876%)" offset="0.535156"/><stop stop-opacity="1" stop-color="rgb(48.954773%, 26.695251%, 6.608582%)" offset="0.539062"/><stop stop-opacity="1" stop-color="rgb(48.4375%, 27.365112%, 7.269287%)" offset="0.542969"/><stop stop-opacity="1" stop-color="rgb(47.921753%, 28.034973%, 7.929993%)" offset="0.546875"/><stop stop-opacity="1" stop-color="rgb(47.40448%, 28.704834%, 8.590698%)" offset="0.550781"/><stop stop-opacity="1" stop-color="rgb(46.888733%, 29.374695%, 9.25293%)" offset="0.554688"/><stop stop-opacity="1" stop-color="rgb(46.37146%, 30.04303%, 9.913635%)" offset="0.558594"/><stop stop-opacity="1" stop-color="rgb(45.855713%, 30.712891%, 10.574341%)" offset="0.5625"/><stop stop-opacity="1" stop-color="rgb(45.33844%, 31.382751%, 11.235046%)" offset="0.566406"/><stop stop-opacity="1" stop-color="rgb(44.821167%, 32.052612%, 11.895752%)" offset="0.570312"/><stop stop-opacity="1" stop-color="rgb(44.303894%, 32.722473%, 12.556458%)" offset="0.574219"/><stop stop-opacity="1" stop-color="rgb(43.788147%, 33.392334%, 13.218689%)" offset="0.578125"/><stop stop-opacity="1" stop-color="rgb(43.270874%, 34.062195%, 13.879395%)" offset="0.582031"/><stop stop-opacity="1" stop-color="rgb(42.755127%, 34.732056%, 14.5401%)" offset="0.585937"/><stop stop-opacity="1" stop-color="rgb(42.237854%, 35.400391%, 15.200806%)" offset="0.589844"/><stop stop-opacity="1" stop-color="rgb(41.722107%, 36.070251%, 15.861511%)" offset="0.59375"/><stop stop-opacity="1" stop-color="rgb(41.204834%, 36.740112%, 16.522217%)" offset="0.597656"/><stop stop-opacity="1" stop-color="rgb(40.689087%, 37.409973%, 17.182922%)" offset="0.601562"/><stop stop-opacity="1" stop-color="rgb(40.171814%, 38.079834%, 17.843628%)" offset="0.605469"/><stop stop-opacity="1" stop-color="rgb(39.656067%, 38.749695%, 18.505859%)" offset="0.609375"/><stop stop-opacity="1" stop-color="rgb(39.138794%, 39.41803%, 19.166565%)" offset="0.613281"/><stop stop-opacity="1" stop-color="rgb(38.623047%, 40.087891%, 19.827271%)" offset="0.617187"/><stop stop-opacity="1" stop-color="rgb(38.105774%, 40.757751%, 20.487976%)" offset="0.621094"/><stop stop-opacity="1" stop-color="rgb(37.590027%, 41.427612%, 21.148682%)" offset="0.625"/><stop stop-opacity="1" stop-color="rgb(37.072754%, 42.097473%, 21.809387%)" offset="0.628906"/><stop stop-opacity="1" stop-color="rgb(36.557007%, 42.767334%, 22.471619%)" offset="0.632813"/><stop stop-opacity="1" stop-color="rgb(36.039734%, 43.437195%, 23.132324%)" offset="0.636719"/><stop stop-opacity="1" stop-color="rgb(35.523987%, 44.107056%, 23.79303%)" offset="0.640625"/><stop stop-opacity="1" stop-color="rgb(35.006714%, 44.775391%, 24.453735%)" offset="0.644531"/><stop stop-opacity="1" stop-color="rgb(34.490967%, 45.445251%, 25.114441%)" offset="0.648438"/><stop stop-opacity="1" stop-color="rgb(33.973694%, 46.115112%, 25.775146%)" offset="0.652344"/><stop stop-opacity="1" stop-color="rgb(33.457947%, 46.784973%, 26.437378%)" offset="0.65625"/><stop stop-opacity="1" stop-color="rgb(32.940674%, 47.454834%, 27.098083%)" offset="0.660156"/><stop stop-opacity="1" stop-color="rgb(32.424927%, 48.124695%, 27.758789%)" offset="0.664063"/><stop stop-opacity="1" stop-color="rgb(31.907654%, 48.79303%, 28.419495%)" offset="0.667969"/><stop stop-opacity="1" stop-color="rgb(31.391907%, 49.462891%, 29.0802%)" offset="0.671875"/><stop stop-opacity="1" stop-color="rgb(30.874634%, 50.132751%, 29.740906%)" offset="0.675781"/><stop stop-opacity="1" stop-color="rgb(30.358887%, 50.802612%, 30.401611%)" offset="0.679688"/><stop stop-opacity="1" stop-color="rgb(29.841614%, 51.472473%, 31.062317%)" offset="0.683594"/><stop stop-opacity="1" stop-color="rgb(29.325867%, 52.142334%, 31.724548%)" offset="0.6875"/><stop stop-opacity="1" stop-color="rgb(28.808594%, 52.812195%, 32.385254%)" offset="0.691406"/><stop stop-opacity="1" stop-color="rgb(28.292847%, 53.482056%, 33.045959%)" offset="0.695312"/><stop stop-opacity="1" stop-color="rgb(27.775574%, 54.150391%, 33.706665%)" offset="0.699219"/><stop stop-opacity="1" stop-color="rgb(27.259827%, 54.820251%, 34.367371%)" offset="0.703125"/><stop stop-opacity="1" stop-color="rgb(26.742554%, 55.490112%, 35.028076%)" offset="0.707031"/><stop stop-opacity="1" stop-color="rgb(26.226807%, 56.159973%, 35.690308%)" offset="0.710938"/><stop stop-opacity="1" stop-color="rgb(25.709534%, 56.829834%, 36.351013%)" offset="0.714844"/><stop stop-opacity="1" stop-color="rgb(25.193787%, 57.499695%, 37.011719%)" offset="0.71875"/><stop stop-opacity="1" stop-color="rgb(24.676514%, 58.16803%, 37.672424%)" offset="0.722656"/><stop stop-opacity="1" stop-color="rgb(24.160767%, 58.837891%, 38.33313%)" offset="0.726562"/><stop stop-opacity="1" stop-color="rgb(23.643494%, 59.507751%, 38.993835%)" offset="0.730469"/><stop stop-opacity="1" stop-color="rgb(23.127747%, 60.177612%, 39.656067%)" offset="0.734375"/><stop stop-opacity="1" stop-color="rgb(22.610474%, 60.847473%, 40.316772%)" offset="0.738281"/><stop stop-opacity="1" stop-color="rgb(22.094727%, 61.517334%, 40.977478%)" offset="0.742188"/><stop stop-opacity="1" stop-color="rgb(21.577454%, 62.187195%, 41.638184%)" offset="0.746094"/><stop stop-opacity="1" stop-color="rgb(21.061707%, 62.857056%, 42.298889%)" offset="0.75"/><stop stop-opacity="1" stop-color="rgb(20.544434%, 63.525391%, 42.959595%)" offset="0.753906"/><stop stop-opacity="1" stop-color="rgb(20.028687%, 64.195251%, 43.621826%)" offset="0.757812"/><stop stop-opacity="1" stop-color="rgb(19.511414%, 64.865112%, 44.282532%)" offset="0.761719"/><stop stop-opacity="1" stop-color="rgb(18.995667%, 65.534973%, 44.943237%)" offset="0.765625"/><stop stop-opacity="1" stop-color="rgb(18.478394%, 66.204834%, 45.603943%)" offset="0.769531"/><stop stop-opacity="1" stop-color="rgb(17.962646%, 66.874695%, 46.264648%)" offset="0.773438"/><stop stop-opacity="1" stop-color="rgb(17.445374%, 67.54303%, 46.925354%)" offset="0.777344"/><stop stop-opacity="1" stop-color="rgb(16.929626%, 68.212891%, 47.58606%)" offset="0.78125"/><stop stop-opacity="1" stop-color="rgb(16.412354%, 68.882751%, 48.246765%)" offset="0.785156"/><stop stop-opacity="1" stop-color="rgb(15.896606%, 69.552612%, 48.908997%)" offset="0.789062"/><stop stop-opacity="1" stop-color="rgb(15.379333%, 70.222473%, 49.569702%)" offset="0.792969"/><stop stop-opacity="1" stop-color="rgb(14.863586%, 70.892334%, 50.230408%)" offset="0.796875"/><stop stop-opacity="1" stop-color="rgb(14.346313%, 71.562195%, 50.891113%)" offset="0.800781"/><stop stop-opacity="1" stop-color="rgb(13.830566%, 72.232056%, 51.551819%)" offset="0.804688"/><stop stop-opacity="1" stop-color="rgb(13.313293%, 72.900391%, 52.212524%)" offset="0.808594"/><stop stop-opacity="1" stop-color="rgb(12.797546%, 73.570251%, 52.874756%)" offset="0.8125"/><stop stop-opacity="1" stop-color="rgb(12.280273%, 74.240112%, 53.535461%)" offset="0.816406"/><stop stop-opacity="1" stop-color="rgb(11.764526%, 74.909973%, 54.196167%)" offset="0.820312"/><stop stop-opacity="1" stop-color="rgb(11.247253%, 75.579834%, 54.856873%)" offset="0.824219"/><stop stop-opacity="1" stop-color="rgb(10.731506%, 76.249695%, 55.517578%)" offset="0.828125"/><stop stop-opacity="1" stop-color="rgb(10.214233%, 76.91803%, 56.178284%)" offset="0.832031"/><stop stop-opacity="1" stop-color="rgb(9.698486%, 77.587891%, 56.840515%)" offset="0.835937"/><stop stop-opacity="1" stop-color="rgb(9.181213%, 78.257751%, 57.501221%)" offset="0.839844"/><stop stop-opacity="1" stop-color="rgb(8.665466%, 78.927612%, 58.161926%)" offset="0.84375"/><stop stop-opacity="1" stop-color="rgb(8.251953%, 79.463196%, 58.68988%)" offset="0.847656"/><stop stop-opacity="1" stop-color="rgb(7.839966%, 79.998779%, 59.21936%)" offset="0.851562"/><stop stop-opacity="1" stop-color="rgb(7.839966%, 79.998779%, 59.21936%)" offset="0.859375"/><stop stop-opacity="1" stop-color="rgb(7.839966%, 79.998779%, 59.21936%)" offset="0.875"/><stop stop-opacity="1" stop-color="rgb(7.839966%, 79.998779%, 59.21936%)" offset="1"/></linearGradient><clipPath id="c30cbf2dd2"><rect x="0" width="113" y="0" height="113"/></clipPath><clipPath id="9ba2d0f1e9"><path d="M 154 156 L 187.5 156 L 187.5 218.917969 L 154 218.917969 Z M 154 156 " clip-rule="nonzero"/></clipPath><clipPath id="33647ce2d0"><path d="M 160.066406 156.097656 L 181.5 156.097656 C 183.089844 156.097656 184.617188 156.730469 185.742188 157.855469 C 186.867188 158.980469 187.5 160.507812 187.5 162.097656 L 187.5 212.902344 C 187.5 214.492188 186.867188 216.019531 185.742188 217.144531 C 184.617188 218.269531 183.089844 218.902344 181.5 218.902344 L 160.066406 218.902344 C 158.476562 218.902344 156.949219 218.269531 155.824219 217.144531 C 154.699219 216.019531 154.066406 214.492188 154.066406 212.902344 L 154.066406 162.097656 C 154.066406 160.507812 154.699219 158.980469 155.824219 157.855469 C 156.949219 156.730469 158.476562 156.097656 160.066406 156.097656 Z M 160.066406 156.097656 " clip-rule="nonzero"/></clipPath><clipPath id="5736fd7c08"><path d="M 0 0 L 33.5 0 L 33.5 62.917969 L 0 62.917969 Z M 0 0 " clip-rule="nonzero"/></clipPath><clipPath id="cb23879299"><path d="M 6.066406 0.0976562 L 27.5 0.0976562 C 29.089844 0.0976562 30.617188 0.730469 31.742188 1.855469 C 32.867188 2.980469 33.5 4.507812 33.5 6.097656 L 33.5 56.902344 C 33.5 58.492188 32.867188 60.019531 31.742188 61.144531 C 30.617188 62.269531 29.089844 62.902344 27.5 62.902344 L 6.066406 62.902344 C 4.476562 62.902344 2.949219 62.269531 1.824219 61.144531 C 0.699219 60.019531 0.0664062 58.492188 0.0664062 56.902344 L 0.0664062 6.097656 C 0.0664062 4.507812 0.699219 2.980469 1.824219 1.855469 C 2.949219 0.730469 4.476562 0.0976562 6.066406 0.0976562 Z M 6.066406 0.0976562 " clip-rule="nonzero"/></clipPath><clipPath id="007a2aa293"><rect x="0" width="34" y="0" height="63"/></clipPath><clipPath id="741768032d"><path d="M 191.253906 187.5 L 221.300781 187.5 L 221.300781 217.546875 L 191.253906 217.546875 Z M 191.253906 187.5 " clip-rule="nonzero"/></clipPath><clipPath id="4395dc00d3"><path d="M 197.253906 187.5 L 215.300781 187.5 C 216.890625 187.5 218.417969 188.132812 219.542969 189.257812 C 220.667969 190.382812 221.300781 191.910156 221.300781 193.5 L 221.300781 211.546875 C 221.300781 213.136719 220.667969 214.664062 219.542969 215.789062 C 218.417969 216.914062 216.890625 217.546875 215.300781 217.546875 L 197.253906 217.546875 C 195.664062 217.546875 194.136719 216.914062 193.011719 215.789062 C 191.886719 214.664062 191.253906 213.136719 191.253906 211.546875 L 191.253906 193.5 C 191.253906 191.910156 191.886719 190.382812 193.011719 189.257812 C 194.136719 188.132812 195.664062 187.5 197.253906 187.5 Z M 197.253906 187.5 " clip-rule="nonzero"/></clipPath><clipPath id="114247a4ea"><path d="M 0.253906 0.5 L 30.300781 0.5 L 30.300781 30.546875 L 0.253906 30.546875 Z M 0.253906 0.5 " clip-rule="nonzero"/></clipPath><clipPath id="96e202a729"><path d="M 6.253906 0.5 L 24.300781 0.5 C 25.890625 0.5 27.417969 1.132812 28.542969 2.257812 C 29.667969 3.382812 30.300781 4.910156 30.300781 6.5 L 30.300781 24.546875 C 30.300781 26.136719 29.667969 27.664062 28.542969 28.789062 C 27.417969 29.914062 25.890625 30.546875 24.300781 30.546875 L 6.253906 30.546875 C 4.664062 30.546875 3.136719 29.914062 2.011719 28.789062 C 0.886719 27.664062 0.253906 26.136719 0.253906 24.546875 L 0.253906 6.5 C 0.253906 4.910156 0.886719 3.382812 2.011719 2.257812 C 3.136719 1.132812 4.664062 0.5 6.253906 0.5 Z M 6.253906 0.5 " clip-rule="nonzero"/></clipPath><clipPath id="0a515b513b"><rect x="0" width="31" y="0" height="31"/></clipPath><clipPath id="9afe211f6f"><path d="M 194.699219 156.097656 L 214.949219 156.097656 L 214.949219 182.347656 L 194.699219 182.347656 Z M 194.699219 156.097656 " clip-rule="nonzero"/></clipPath></defs><g clip-path="url(#8b7bc6d1a4)"><g clip-path="url(#97d50fd6fd)"><g transform="matrix(1, 0, 0, 1, 131, 131)"><g clip-path="url(#c30cbf2dd2)"><g clip-path="url(#27886c61c7)"><g clip-path="url(#74dc333b28)"><path fill="url(#7e294d57cb)" d="M 0.25 0.25 L 0.25 112.75 L 112.75 112.75 L 112.75 0.25 Z M 0.25 0.25 " fill-rule="nonzero"/></g></g></g></g></g></g><g clip-path="url(#9ba2d0f1e9)"><g clip-path="url(#33647ce2d0)"><g transform="matrix(1, 0, 0, 1, 154, 156)"><g clip-path="url(#007a2aa293)"><g clip-path="url(#5736fd7c08)"><g clip-path="url(#cb23879299)"><path fill="#ffffff" d="M 0.0664062 0.0976562 L 33.5 0.0976562 L 33.5 62.917969 L 0.0664062 62.917969 Z M 0.0664062 0.0976562 " fill-opacity="1" fill-rule="nonzero"/></g></g></g></g></g></g><g clip-path="url(#741768032d)"><g clip-path="url(#4395dc00d3)"><g transform="matrix(1, 0, 0, 1, 191, 187)"><g clip-path="url(#0a515b513b)"><g clip-path="url(#114247a4ea)"><g clip-path="url(#96e202a729)"><path fill="#ffffff" d="M 0.253906 0.5 L 30.300781 0.5 L 30.300781 30.546875 L 0.253906 30.546875 Z M 0.253906 0.5 " fill-opacity="1" fill-rule="nonzero"/></g></g></g></g></g></g><g clip-path="url(#9afe211f6f)"><path fill="#ffffff" d="M 211.6875 166.441406 L 211.503906 166.441406 L 211.503906 162.859375 C 211.503906 159.132812 208.46875 156.097656 204.742188 156.097656 C 201.011719 156.097656 197.980469 159.132812 197.980469 162.859375 L 197.980469 166.441406 L 197.792969 166.441406 C 196.089844 166.441406 194.703125 167.828125 194.703125 169.535156 L 194.703125 179.621094 C 194.703125 181.328125 196.089844 182.714844 197.792969 182.714844 L 211.6875 182.714844 C 213.390625 182.714844 214.777344 181.328125 214.777344 179.621094 L 214.777344 169.53125 C 214.777344 167.828125 213.390625 166.441406 211.6875 166.441406 Z M 198.578125 162.859375 C 198.578125 159.460938 201.34375 156.695312 204.742188 156.695312 C 208.140625 156.695312 210.90625 159.460938 210.90625 162.859375 L 210.90625 166.441406 L 208.628906 166.441406 L 208.628906 162.894531 C 208.628906 160.75 206.886719 159.003906 204.742188 159.003906 C 202.597656 159.003906 200.851562 160.75 200.851562 162.894531 L 200.851562 166.441406 L 198.578125 166.441406 Z M 208.035156 166.441406 L 201.449219 166.441406 L 201.449219 162.890625 C 201.449219 161.074219 202.925781 159.597656 204.742188 159.597656 C 206.558594 159.597656 208.035156 161.074219 208.035156 162.890625 Z M 214.179688 179.621094 C 214.179688 180.996094 213.0625 182.117188 211.6875 182.117188 L 197.792969 182.117188 C 196.417969 182.117188 195.300781 180.996094 195.300781 179.621094 L 195.300781 169.53125 C 195.300781 168.160156 196.417969 167.039062 197.792969 167.039062 L 211.6875 167.039062 C 213.0625 167.039062 214.179688 168.160156 214.179688 169.53125 Z M 214.179688 179.621094 " fill-opacity="1" fill-rule="nonzero"/></g><path fill="#ffffff" d="M 206.511719 175.292969 C 207.050781 174.6875 207.234375 173.847656 207.011719 173.046875 C 206.777344 172.222656 206.136719 171.617188 205.296875 171.425781 C 204.574219 171.261719 203.835938 171.425781 203.269531 171.875 C 202.703125 172.328125 202.378906 173 202.378906 173.726562 C 202.378906 174.425781 202.683594 175.085938 203.21875 175.535156 C 203.328125 175.628906 203.367188 175.761719 203.320312 175.875 L 202.722656 177.285156 C 202.621094 177.523438 202.644531 177.796875 202.789062 178.011719 C 202.933594 178.230469 203.171875 178.359375 203.433594 178.359375 L 206.050781 178.359375 C 206.3125 178.359375 206.550781 178.230469 206.695312 178.011719 C 206.835938 177.796875 206.863281 177.523438 206.761719 177.285156 L 206.171875 175.890625 C 206.117188 175.765625 206.160156 175.621094 206.273438 175.527344 C 206.359375 175.453125 206.4375 175.375 206.511719 175.292969 Z M 205.621094 176.125 L 206.210938 177.515625 C 206.246094 177.597656 206.210938 177.660156 206.199219 177.683594 C 206.183594 177.707031 206.136719 177.761719 206.050781 177.761719 L 203.433594 177.761719 C 203.347656 177.761719 203.300781 177.707031 203.285156 177.683594 C 203.269531 177.660156 203.238281 177.597656 203.273438 177.519531 L 203.867188 176.109375 C 204.019531 175.753906 203.910156 175.339844 203.605469 175.078125 C 203.203125 174.742188 202.972656 174.25 202.972656 173.726562 C 202.972656 173.183594 203.21875 172.679688 203.640625 172.34375 C 203.957031 172.089844 204.34375 171.957031 204.746094 171.957031 C 204.882812 171.957031 205.023438 171.972656 205.164062 172.007812 C 205.789062 172.148438 206.265625 172.597656 206.4375 173.207031 C 206.609375 173.820312 206.472656 174.4375 206.066406 174.898438 C 206.011719 174.960938 205.953125 175.019531 205.890625 175.070312 C 205.574219 175.335938 205.46875 175.761719 205.621094 176.125 Z M 205.621094 176.125 " fill-opacity="1" fill-rule="nonzero"/><g fill="#ffffff" fill-opacity="1"><g transform="translate(154.077988, 266.500002)"><g><path d="M 7.21875 -7.484375 C 7.1875 -8.109375 6.960938 -8.554688 6.546875 -8.828125 C 6.128906 -9.097656 5.523438 -9.234375 4.734375 -9.234375 C 4.160156 -9.234375 3.671875 -9.109375 3.265625 -8.859375 C 2.859375 -8.609375 2.65625 -8.242188 2.65625 -7.765625 C 2.65625 -7.390625 2.773438 -7.109375 3.015625 -6.921875 C 3.253906 -6.742188 3.773438 -6.554688 4.578125 -6.359375 L 6.3125 -5.921875 C 7.375 -5.648438 8.128906 -5.304688 8.578125 -4.890625 C 9.035156 -4.484375 9.265625 -3.910156 9.265625 -3.171875 C 9.265625 -2.140625 8.882812 -1.300781 8.125 -0.65625 C 7.375 -0.0195312 6.375 0.296875 5.125 0.296875 C 3.65625 0.296875 2.546875 -0.00390625 1.796875 -0.609375 C 1.046875 -1.222656 0.660156 -2.140625 0.640625 -3.359375 L 2.34375 -3.359375 C 2.375 -2.640625 2.613281 -2.101562 3.0625 -1.75 C 3.507812 -1.394531 4.1875 -1.21875 5.09375 -1.21875 C 5.832031 -1.21875 6.414062 -1.363281 6.84375 -1.65625 C 7.28125 -1.945312 7.5 -2.351562 7.5 -2.875 C 7.5 -3.25 7.359375 -3.546875 7.078125 -3.765625 C 6.796875 -3.992188 6.242188 -4.203125 5.421875 -4.390625 L 3.375 -4.890625 C 2.550781 -5.097656 1.941406 -5.40625 1.546875 -5.8125 C 1.148438 -6.226562 0.953125 -6.765625 0.953125 -7.421875 C 0.953125 -8.453125 1.320312 -9.265625 2.0625 -9.859375 C 2.800781 -10.460938 3.757812 -10.765625 4.9375 -10.765625 C 6.207031 -10.765625 7.175781 -10.457031 7.84375 -9.84375 C 8.519531 -9.226562 8.878906 -8.441406 8.921875 -7.484375 Z M 7.21875 -7.484375 "/></g></g></g><g fill="#ffffff" fill-opacity="1"><g transform="translate(164.074081, 266.500002)"><g><path d="M 8.5 -6.0625 C 8.40625 -7.195312 8.101562 -8 7.59375 -8.46875 C 7.09375 -8.945312 6.421875 -9.1875 5.578125 -9.1875 C 4.722656 -9.1875 4.03125 -8.882812 3.5 -8.28125 C 2.976562 -7.6875 2.703125 -6.945312 2.671875 -6.0625 Z M 10.171875 -3.28125 C 9.984375 -2.195312 9.453125 -1.300781 8.578125 -0.59375 C 7.816406 0 6.816406 0.304688 5.578125 0.328125 C 4.109375 0.304688 2.941406 -0.175781 2.078125 -1.125 C 1.222656 -2.070312 0.796875 -3.34375 0.796875 -4.9375 C 0.796875 -6.78125 1.238281 -8.210938 2.125 -9.234375 C 3.007812 -10.253906 4.242188 -10.765625 5.828125 -10.765625 C 7.234375 -10.765625 8.332031 -10.234375 9.125 -9.171875 C 9.925781 -8.117188 10.328125 -6.613281 10.328125 -4.65625 L 2.671875 -4.65625 C 2.671875 -3.5625 2.925781 -2.710938 3.4375 -2.109375 C 3.945312 -1.515625 4.707031 -1.21875 5.71875 -1.21875 C 6.4375 -1.21875 7.050781 -1.429688 7.5625 -1.859375 C 8.082031 -2.296875 8.367188 -2.769531 8.421875 -3.28125 Z M 10.171875 -3.28125 "/></g></g></g><g fill="#ffffff" fill-opacity="1"><g transform="translate(175.153735, 266.500002)"><g><path d="M 7.671875 -5.34375 C 7.546875 -5.207031 7.289062 -5.097656 6.90625 -5.015625 C 6.53125 -4.929688 5.820312 -4.816406 4.78125 -4.671875 C 4.007812 -4.585938 3.441406 -4.398438 3.078125 -4.109375 C 2.722656 -3.828125 2.546875 -3.453125 2.546875 -2.984375 C 2.546875 -2.410156 2.695312 -1.960938 3 -1.640625 C 3.300781 -1.316406 3.789062 -1.15625 4.46875 -1.15625 C 5.300781 -1.15625 6.039062 -1.394531 6.6875 -1.875 C 7.34375 -2.351562 7.671875 -2.9375 7.671875 -3.625 Z M 1.234375 -7.28125 C 1.273438 -8.457031 1.660156 -9.332031 2.390625 -9.90625 C 3.117188 -10.476562 4.175781 -10.765625 5.5625 -10.765625 C 6.664062 -10.765625 7.59375 -10.515625 8.34375 -10.015625 C 9.09375 -9.515625 9.46875 -8.789062 9.46875 -7.84375 L 9.46875 -1.8125 C 9.46875 -1.40625 9.648438 -1.203125 10.015625 -1.203125 C 10.171875 -1.203125 10.363281 -1.226562 10.59375 -1.28125 L 10.59375 0 C 10.28125 0.132812 9.945312 0.203125 9.59375 0.203125 C 9 0.203125 8.554688 0.0703125 8.265625 -0.1875 C 7.972656 -0.445312 7.816406 -0.847656 7.796875 -1.390625 C 6.796875 -0.265625 5.539062 0.296875 4.03125 0.296875 C 3.039062 0.296875 2.242188 0.0195312 1.640625 -0.53125 C 1.046875 -1.09375 0.75 -1.820312 0.75 -2.71875 C 0.75 -3.644531 1.007812 -4.390625 1.53125 -4.953125 C 2.050781 -5.515625 2.804688 -5.859375 3.796875 -5.984375 L 6.90625 -6.359375 C 7.46875 -6.441406 7.75 -6.851562 7.75 -7.59375 C 7.75 -8.144531 7.546875 -8.566406 7.140625 -8.859375 C 6.734375 -9.148438 6.113281 -9.296875 5.28125 -9.296875 C 4.550781 -9.296875 3.988281 -9.132812 3.59375 -8.8125 C 3.195312 -8.488281 2.957031 -7.976562 2.875 -7.28125 Z M 1.234375 -7.28125 "/></g></g></g><g fill="#ffffff" fill-opacity="1"><g transform="translate(186.13577, 266.500002)"><g><path d="M 3.078125 0 L 1.3125 0 L 1.3125 -14.359375 L 3.078125 -14.359375 Z M 3.078125 0 "/></g></g></g><g fill="#ffffff" fill-opacity="1"><g transform="translate(190.538347, 266.500002)"><g><path d="M 2.625 -5.265625 C 2.625 -3.972656 2.878906 -2.972656 3.390625 -2.265625 C 3.898438 -1.566406 4.582031 -1.21875 5.4375 -1.21875 C 6.25 -1.21875 6.925781 -1.515625 7.46875 -2.109375 C 8.019531 -2.710938 8.296875 -3.585938 8.296875 -4.734375 C 8.296875 -6.203125 8.0625 -7.3125 7.59375 -8.0625 C 7.132812 -8.8125 6.429688 -9.1875 5.484375 -9.1875 C 4.578125 -9.1875 3.875 -8.890625 3.375 -8.296875 C 2.875 -7.703125 2.625 -6.691406 2.625 -5.265625 Z M 10.078125 0 L 8.421875 0 L 8.421875 -1.4375 L 8.375 -1.4375 C 7.71875 -0.28125 6.710938 0.296875 5.359375 0.296875 C 3.910156 0.296875 2.785156 -0.253906 1.984375 -1.359375 C 1.191406 -2.460938 0.796875 -3.851562 0.796875 -5.53125 C 0.796875 -7.082031 1.191406 -8.34375 1.984375 -9.3125 C 2.773438 -10.28125 3.832031 -10.765625 5.15625 -10.765625 C 6.46875 -10.765625 7.507812 -10.171875 8.28125 -8.984375 L 8.328125 -9.109375 L 8.328125 -14.359375 L 10.078125 -14.359375 Z M 10.078125 0 "/></g></g></g><g fill="#ffffff" fill-opacity="1"><g transform="translate(201.930378, 266.500002)"><g><path d="M 3.078125 0 L 1.3125 0 L 1.3125 -10.453125 L 2.984375 -10.453125 L 2.984375 -8.71875 L 3.015625 -8.71875 C 3.773438 -10.082031 4.753906 -10.765625 5.953125 -10.765625 C 6.140625 -10.765625 6.296875 -10.742188 6.421875 -10.703125 L 6.421875 -8.875 L 5.765625 -8.875 C 4.972656 -8.875 4.328125 -8.609375 3.828125 -8.078125 C 3.328125 -7.546875 3.078125 -6.878906 3.078125 -6.078125 Z M 3.078125 0 "/></g></g></g><g fill="#ffffff" fill-opacity="1"><g transform="translate(208.246246, 266.500002)"><g><path d="M 2.546875 -5.25 C 2.546875 -4.082031 2.804688 -3.117188 3.328125 -2.359375 C 3.859375 -1.609375 4.609375 -1.234375 5.578125 -1.234375 C 6.578125 -1.234375 7.335938 -1.628906 7.859375 -2.421875 C 8.378906 -3.210938 8.640625 -4.15625 8.640625 -5.25 C 8.640625 -6.351562 8.378906 -7.289062 7.859375 -8.0625 C 7.335938 -8.832031 6.578125 -9.21875 5.578125 -9.21875 C 4.648438 -9.21875 3.910156 -8.851562 3.359375 -8.125 C 2.816406 -7.40625 2.546875 -6.445312 2.546875 -5.25 Z M 0.75 -5.25 C 0.75 -6.800781 1.179688 -8.109375 2.046875 -9.171875 C 2.910156 -10.234375 4.085938 -10.765625 5.578125 -10.765625 C 7.097656 -10.765625 8.285156 -10.226562 9.140625 -9.15625 C 10.003906 -8.082031 10.4375 -6.78125 10.4375 -5.25 C 10.4375 -3.707031 10.007812 -2.394531 9.15625 -1.3125 C 8.300781 -0.238281 7.109375 0.296875 5.578125 0.296875 C 4.097656 0.296875 2.921875 -0.222656 2.046875 -1.265625 C 1.179688 -2.316406 0.75 -3.644531 0.75 -5.25 Z M 0.75 -5.25 "/></g></g></g><g fill="#ffffff" fill-opacity="1"><g transform="translate(219.423518, 266.500002)"><g><path d="M 3 -4.734375 C 3 -3.617188 3.269531 -2.753906 3.8125 -2.140625 C 4.363281 -1.523438 5.046875 -1.21875 5.859375 -1.21875 C 6.753906 -1.21875 7.445312 -1.582031 7.9375 -2.3125 C 8.4375 -3.039062 8.6875 -4.023438 8.6875 -5.265625 C 8.6875 -6.628906 8.445312 -7.625 7.96875 -8.25 C 7.488281 -8.875 6.773438 -9.1875 5.828125 -9.1875 C 4.890625 -9.1875 4.179688 -8.816406 3.703125 -8.078125 C 3.234375 -7.347656 3 -6.234375 3 -4.734375 Z M 1.3125 -10.453125 L 2.984375 -10.453125 L 2.984375 -8.984375 L 3.015625 -8.984375 C 3.765625 -10.171875 4.804688 -10.765625 6.140625 -10.765625 C 7.492188 -10.765625 8.554688 -10.273438 9.328125 -9.296875 C 10.109375 -8.316406 10.5 -7.0625 10.5 -5.53125 C 10.5 -3.832031 10.097656 -2.4375 9.296875 -1.34375 C 8.503906 -0.25 7.375 0.296875 5.90625 0.296875 C 4.6875 0.296875 3.753906 -0.171875 3.109375 -1.109375 L 3.078125 -1.109375 L 3.078125 4.140625 L 1.3125 4.140625 Z M 1.3125 -10.453125 "/></g></g></g></svg>