<svg xmlns="http://www.w3.org/2000/svg" xmlns:xlink="http://www.w3.org/1999/xlink" width="500" zoomAndPan="magnify" viewBox="0 0 375 374.999991" height="500" preserveAspectRatio="xMidYMid meet" version="1.0"><defs><clipPath id="25d7134d86"><path d="M 131.25 131.25 L 243.75 131.25 L 243.75 243.75 L 131.25 243.75 Z M 131.25 131.25 " clip-rule="nonzero"/></clipPath><clipPath id="ba1f77ffee"><path d="M 187.5 131.25 C 156.433594 131.25 131.25 156.433594 131.25 187.5 C 131.25 218.566406 156.433594 243.75 187.5 243.75 C 218.566406 243.75 243.75 218.566406 243.75 187.5 C 243.75 156.433594 218.566406 131.25 187.5 131.25 Z M 187.5 131.25 " clip-rule="nonzero"/></clipPath><clipPath id="49a4d6b52d"><path d="M 0.25 0.25 L 112.75 0.25 L 112.75 112.75 L 0.25 112.75 Z M 0.25 0.25 " clip-rule="nonzero"/></clipPath><clipPath id="f6905d138b"><path d="M 56.5 0.25 C 25.433594 0.25 0.25 25.433594 0.25 56.5 C 0.25 87.566406 25.433594 112.75 56.5 112.75 C 87.566406 112.75 112.75 87.566406 112.75 56.5 C 112.75 25.433594 87.566406 0.25 56.5 0.25 Z M 56.5 0.25 " clip-rule="nonzero"/></clipPath><linearGradient x1="0%" y1="100%" x2="100%" y2="0%" id="489685004b">
      <stop offset="0%" stop-color="#F59E0B" stop-opacity="1"/>
      <stop offset="50%" stop-color="#10B981" stop-opacity="1"/>
      <stop offset="100%" stop-color="#10B981" stop-opacity="1"/>
    </linearGradient><clipPath id="6a8a6912e2"><rect x="0" width="113" y="0" height="113"/></clipPath><clipPath id="452eec6aa8"><path d="M 154 156 L 187.5 156 L 187.5 218.917969 L 154 218.917969 Z M 154 156 " clip-rule="nonzero"/></clipPath><clipPath id="2c18b3a4ad"><path d="M 160.066406 156.097656 L 181.5 156.097656 C 183.089844 156.097656 184.617188 156.730469 185.742188 157.855469 C 186.867188 158.980469 187.5 160.507812 187.5 162.097656 L 187.5 212.902344 C 187.5 214.492188 186.867188 216.019531 185.742188 217.144531 C 184.617188 218.269531 183.089844 218.902344 181.5 218.902344 L 160.066406 218.902344 C 158.476562 218.902344 156.949219 218.269531 155.824219 217.144531 C 154.699219 216.019531 154.066406 214.492188 154.066406 212.902344 L 154.066406 162.097656 C 154.066406 160.507812 154.699219 158.980469 155.824219 157.855469 C 156.949219 156.730469 158.476562 156.097656 160.066406 156.097656 Z M 160.066406 156.097656 " clip-rule="nonzero"/></clipPath><clipPath id="d1fb79c88c"><path d="M 0 0 L 33.5 0 L 33.5 62.917969 L 0 62.917969 Z M 0 0 " clip-rule="nonzero"/></clipPath><clipPath id="dd7fea4150"><path d="M 6.066406 0.0976562 L 27.5 0.0976562 C 29.089844 0.0976562 30.617188 0.730469 31.742188 1.855469 C 32.867188 2.980469 33.5 4.507812 33.5 6.097656 L 33.5 56.902344 C 33.5 58.492188 32.867188 60.019531 31.742188 61.144531 C 30.617188 62.269531 29.089844 62.902344 27.5 62.902344 L 6.066406 62.902344 C 4.476562 62.902344 2.949219 62.269531 1.824219 61.144531 C 0.699219 60.019531 0.0664062 58.492188 0.0664062 56.902344 L 0.0664062 6.097656 C 0.0664062 4.507812 0.699219 2.980469 1.824219 1.855469 C 2.949219 0.730469 4.476562 0.0976562 6.066406 0.0976562 Z M 6.066406 0.0976562 " clip-rule="nonzero"/></clipPath><clipPath id="1d353873af"><rect x="0" width="34" y="0" height="63"/></clipPath><clipPath id="7d776b27ed"><path d="M 191.253906 187.5 L 221.300781 187.5 L 221.300781 217.546875 L 191.253906 217.546875 Z M 191.253906 187.5 " clip-rule="nonzero"/></clipPath><clipPath id="8a82aa1776"><path d="M 197.253906 187.5 L 215.300781 187.5 C 216.890625 187.5 218.417969 188.132812 219.542969 189.257812 C 220.667969 190.382812 221.300781 191.910156 221.300781 193.5 L 221.300781 211.546875 C 221.300781 213.136719 220.667969 214.664062 219.542969 215.789062 C 218.417969 216.914062 216.890625 217.546875 215.300781 217.546875 L 197.253906 217.546875 C 195.664062 217.546875 194.136719 216.914062 193.011719 215.789062 C 191.886719 214.664062 191.253906 213.136719 191.253906 211.546875 L 191.253906 193.5 C 191.253906 191.910156 191.886719 190.382812 193.011719 189.257812 C 194.136719 188.132812 195.664062 187.5 197.253906 187.5 Z M 197.253906 187.5 " clip-rule="nonzero"/></clipPath><clipPath id="cac2b2c144"><path d="M 0.253906 0.5 L 30.300781 0.5 L 30.300781 30.546875 L 0.253906 30.546875 Z M 0.253906 0.5 " clip-rule="nonzero"/></clipPath><clipPath id="9b1c42491a"><path d="M 6.253906 0.5 L 24.300781 0.5 C 25.890625 0.5 27.417969 1.132812 28.542969 2.257812 C 29.667969 3.382812 30.300781 4.910156 30.300781 6.5 L 30.300781 24.546875 C 30.300781 26.136719 29.667969 27.664062 28.542969 28.789062 C 27.417969 29.914062 25.890625 30.546875 24.300781 30.546875 L 6.253906 30.546875 C 4.664062 30.546875 3.136719 29.914062 2.011719 28.789062 C 0.886719 27.664062 0.253906 26.136719 0.253906 24.546875 L 0.253906 6.5 C 0.253906 4.910156 0.886719 3.382812 2.011719 2.257812 C 3.136719 1.132812 4.664062 0.5 6.253906 0.5 Z M 6.253906 0.5 " clip-rule="nonzero"/></clipPath><clipPath id="6c70c2e255"><rect x="0" width="31" y="0" height="31"/></clipPath></defs><g clip-path="url(#25d7134d86)"><g clip-path="url(#ba1f77ffee)"><g transform="matrix(1, 0, 0, 1, 131, 131)"><g clip-path="url(#6a8a6912e2)"><g clip-path="url(#49a4d6b52d)"><g clip-path="url(#f6905d138b)"><path fill="url(#489685004b)" d="M 0.25 0.25 L 0.25 112.75 L 112.75 112.75 L 112.75 0.25 Z M 0.25 0.25 " fill-rule="nonzero"/></g></g></g></g></g></g><g clip-path="url(#452eec6aa8)"><g clip-path="url(#2c18b3a4ad)"><g transform="matrix(1, 0, 0, 1, 154, 156)"><g clip-path="url(#1d353873af)"><g clip-path="url(#d1fb79c88c)"><g clip-path="url(#dd7fea4150)"><path fill="#ffffff" d="M 0.0664062 0.0976562 L 33.5 0.0976562 L 33.5 62.917969 L 0.0664062 62.917969 Z M 0.0664062 0.0976562 " fill-opacity="1" fill-rule="nonzero"/></g></g></g></g></g></g><g clip-path="url(#7d776b27ed)"><g clip-path="url(#8a82aa1776)"><g transform="matrix(1, 0, 0, 1, 191, 187)"><g clip-path="url(#6c70c2e255)"><g clip-path="url(#cac2b2c144)"><g clip-path="url(#9b1c42491a)"><path fill="#ffffff" d="M 0.253906 0.5 L 30.300781 0.5 L 30.300781 30.546875 L 0.253906 30.546875 Z M 0.253906 0.5 " fill-opacity="1" fill-rule="nonzero"/></g></g></g></g></g></g></svg>